<mxfile host="app.diagrams.net" agent="Mozilla/5.0 (X11; Linux x86_64; rv:128.0) Gecko/20100101 Firefox/128.0" version="26.1.0" pages="9">
  <diagram name="00" id="b7Blpp15JL35rhQGbMmL">
    <mxGraphModel dx="1422" dy="793" grid="1" gridSize="10" guides="1" tooltips="1" connect="1" arrows="1" fold="1" page="1" pageScale="1" pageWidth="850" pageHeight="1100" math="0" shadow="0">
      <root>
        <mxCell id="FKBhkej1qIrzVRkvEmSb-0" />
        <mxCell id="FKBhkej1qIrzVRkvEmSb-1" parent="FKBhkej1qIrzVRkvEmSb-0" />
        <mxCell id="FKBhkej1qIrzVRkvEmSb-2" value="&lt;b style=&quot;color: rgb(255, 0, 0);&quot;&gt;&lt;font style=&quot;font-size: 24px;&quot;&gt;Host A&lt;/font&gt;&lt;/b&gt;" style="rounded=0;whiteSpace=wrap;html=1;strokeWidth=3;" vertex="1" parent="FKBhkej1qIrzVRkvEmSb-1">
          <mxGeometry x="40" y="40" width="160" height="60" as="geometry" />
        </mxCell>
        <mxCell id="FKBhkej1qIrzVRkvEmSb-3" value="&lt;b style=&quot;color: rgb(0, 0, 255);&quot;&gt;&lt;font style=&quot;font-size: 24px;&quot;&gt;Host B&lt;/font&gt;&lt;/b&gt;" style="rounded=0;whiteSpace=wrap;html=1;strokeWidth=3;" vertex="1" parent="FKBhkej1qIrzVRkvEmSb-1">
          <mxGeometry x="320" y="40" width="160" height="60" as="geometry" />
        </mxCell>
        <mxCell id="FKBhkej1qIrzVRkvEmSb-4" value="" style="endArrow=none;html=1;rounded=0;entryX=0.5;entryY=1;entryDx=0;entryDy=0;strokeWidth=4;" edge="1" parent="FKBhkej1qIrzVRkvEmSb-1" target="FKBhkej1qIrzVRkvEmSb-2">
          <mxGeometry width="50" height="50" relative="1" as="geometry">
            <mxPoint x="120" y="760" as="sourcePoint" />
            <mxPoint x="119.5" y="130" as="targetPoint" />
          </mxGeometry>
        </mxCell>
        <mxCell id="FKBhkej1qIrzVRkvEmSb-5" value="" style="endArrow=none;html=1;rounded=0;entryX=0.5;entryY=1;entryDx=0;entryDy=0;strokeWidth=4;" edge="1" parent="FKBhkej1qIrzVRkvEmSb-1">
          <mxGeometry width="50" height="50" relative="1" as="geometry">
            <mxPoint x="400" y="760" as="sourcePoint" />
            <mxPoint x="399.5" y="100" as="targetPoint" />
          </mxGeometry>
        </mxCell>
      </root>
    </mxGraphModel>
  </diagram>
  <diagram name="01" id="D6zu8-K9WmWBDDul8r1h">
    <mxGraphModel dx="1422" dy="793" grid="1" gridSize="10" guides="1" tooltips="1" connect="1" arrows="1" fold="1" page="1" pageScale="1" pageWidth="850" pageHeight="1100" math="0" shadow="0">
      <root>
        <mxCell id="KTInurb4M0lCrr4aZ4Kt-0" />
        <mxCell id="KTInurb4M0lCrr4aZ4Kt-1" parent="KTInurb4M0lCrr4aZ4Kt-0" />
        <mxCell id="KTInurb4M0lCrr4aZ4Kt-2" value="&lt;b style=&quot;color: rgb(255, 0, 0);&quot;&gt;&lt;font style=&quot;font-size: 24px;&quot;&gt;Host A&lt;/font&gt;&lt;/b&gt;" style="rounded=0;whiteSpace=wrap;html=1;strokeWidth=3;" vertex="1" parent="KTInurb4M0lCrr4aZ4Kt-1">
          <mxGeometry x="40" y="40" width="160" height="60" as="geometry" />
        </mxCell>
        <mxCell id="KTInurb4M0lCrr4aZ4Kt-3" value="&lt;b style=&quot;color: rgb(0, 0, 255);&quot;&gt;&lt;font style=&quot;font-size: 24px;&quot;&gt;Host B&lt;/font&gt;&lt;/b&gt;" style="rounded=0;whiteSpace=wrap;html=1;strokeWidth=3;" vertex="1" parent="KTInurb4M0lCrr4aZ4Kt-1">
          <mxGeometry x="320" y="40" width="160" height="60" as="geometry" />
        </mxCell>
        <mxCell id="KTInurb4M0lCrr4aZ4Kt-4" value="" style="endArrow=none;html=1;rounded=0;entryX=0.5;entryY=1;entryDx=0;entryDy=0;strokeWidth=4;" edge="1" parent="KTInurb4M0lCrr4aZ4Kt-1" target="KTInurb4M0lCrr4aZ4Kt-2">
          <mxGeometry width="50" height="50" relative="1" as="geometry">
            <mxPoint x="120" y="760" as="sourcePoint" />
            <mxPoint x="119.5" y="130" as="targetPoint" />
          </mxGeometry>
        </mxCell>
        <mxCell id="KTInurb4M0lCrr4aZ4Kt-5" value="" style="endArrow=none;html=1;rounded=0;entryX=0.5;entryY=1;entryDx=0;entryDy=0;strokeWidth=4;" edge="1" parent="KTInurb4M0lCrr4aZ4Kt-1">
          <mxGeometry width="50" height="50" relative="1" as="geometry">
            <mxPoint x="400" y="760" as="sourcePoint" />
            <mxPoint x="399.5" y="100" as="targetPoint" />
          </mxGeometry>
        </mxCell>
        <mxCell id="KTInurb4M0lCrr4aZ4Kt-6" value="" style="endArrow=classic;html=1;rounded=0;strokeWidth=2;" edge="1" parent="KTInurb4M0lCrr4aZ4Kt-1">
          <mxGeometry width="50" height="50" relative="1" as="geometry">
            <mxPoint x="120" y="140" as="sourcePoint" />
            <mxPoint x="400" y="180" as="targetPoint" />
          </mxGeometry>
        </mxCell>
        <mxCell id="KTInurb4M0lCrr4aZ4Kt-7" value="&lt;font style=&quot;font-size: 14px;&quot;&gt;&lt;b&gt;&lt;font&gt;SYN &lt;/font&gt;&lt;/b&gt;&lt;font&gt;(seq=A)&lt;/font&gt;&lt;font&gt;&lt;br&gt;&lt;/font&gt;&lt;/font&gt;" style="text;html=1;align=center;verticalAlign=middle;whiteSpace=wrap;rounded=0;rotation=8;" vertex="1" parent="KTInurb4M0lCrr4aZ4Kt-1">
          <mxGeometry x="200" y="130" width="140" height="30" as="geometry" />
        </mxCell>
      </root>
    </mxGraphModel>
  </diagram>
  <diagram name="02" id="lu4P0t6Svp-u6hxJzqUU">
    <mxGraphModel dx="1422" dy="793" grid="1" gridSize="10" guides="1" tooltips="1" connect="1" arrows="1" fold="1" page="1" pageScale="1" pageWidth="850" pageHeight="1100" math="0" shadow="0">
      <root>
        <mxCell id="vEB7vDUypUfogQzmT7L4-0" />
        <mxCell id="vEB7vDUypUfogQzmT7L4-1" parent="vEB7vDUypUfogQzmT7L4-0" />
        <mxCell id="vEB7vDUypUfogQzmT7L4-2" value="&lt;b style=&quot;color: rgb(255, 0, 0);&quot;&gt;&lt;font style=&quot;font-size: 24px;&quot;&gt;Host A&lt;/font&gt;&lt;/b&gt;" style="rounded=0;whiteSpace=wrap;html=1;strokeWidth=3;" vertex="1" parent="vEB7vDUypUfogQzmT7L4-1">
          <mxGeometry x="40" y="40" width="160" height="60" as="geometry" />
        </mxCell>
        <mxCell id="vEB7vDUypUfogQzmT7L4-3" value="&lt;b style=&quot;color: rgb(0, 0, 255);&quot;&gt;&lt;font style=&quot;font-size: 24px;&quot;&gt;Host B&lt;/font&gt;&lt;/b&gt;" style="rounded=0;whiteSpace=wrap;html=1;strokeWidth=3;" vertex="1" parent="vEB7vDUypUfogQzmT7L4-1">
          <mxGeometry x="320" y="40" width="160" height="60" as="geometry" />
        </mxCell>
        <mxCell id="vEB7vDUypUfogQzmT7L4-4" value="" style="endArrow=none;html=1;rounded=0;entryX=0.5;entryY=1;entryDx=0;entryDy=0;strokeWidth=4;" edge="1" parent="vEB7vDUypUfogQzmT7L4-1" target="vEB7vDUypUfogQzmT7L4-2">
          <mxGeometry width="50" height="50" relative="1" as="geometry">
            <mxPoint x="120" y="760" as="sourcePoint" />
            <mxPoint x="119.5" y="130" as="targetPoint" />
          </mxGeometry>
        </mxCell>
        <mxCell id="vEB7vDUypUfogQzmT7L4-5" value="" style="endArrow=none;html=1;rounded=0;entryX=0.5;entryY=1;entryDx=0;entryDy=0;strokeWidth=4;" edge="1" parent="vEB7vDUypUfogQzmT7L4-1">
          <mxGeometry width="50" height="50" relative="1" as="geometry">
            <mxPoint x="400" y="760" as="sourcePoint" />
            <mxPoint x="399.5" y="100" as="targetPoint" />
          </mxGeometry>
        </mxCell>
        <mxCell id="vEB7vDUypUfogQzmT7L4-6" value="" style="endArrow=classic;html=1;rounded=0;strokeWidth=2;" edge="1" parent="vEB7vDUypUfogQzmT7L4-1">
          <mxGeometry width="50" height="50" relative="1" as="geometry">
            <mxPoint x="120" y="140" as="sourcePoint" />
            <mxPoint x="400" y="180" as="targetPoint" />
          </mxGeometry>
        </mxCell>
        <mxCell id="vEB7vDUypUfogQzmT7L4-7" value="&lt;font style=&quot;font-size: 14px;&quot;&gt;&lt;b&gt;&lt;font&gt;SYN &lt;/font&gt;&lt;/b&gt;&lt;font&gt;(seq=A)&lt;/font&gt;&lt;font&gt;&lt;br&gt;&lt;/font&gt;&lt;/font&gt;" style="text;html=1;align=center;verticalAlign=middle;whiteSpace=wrap;rounded=0;rotation=8;" vertex="1" parent="vEB7vDUypUfogQzmT7L4-1">
          <mxGeometry x="200" y="130" width="140" height="30" as="geometry" />
        </mxCell>
        <mxCell id="vEB7vDUypUfogQzmT7L4-8" value="" style="endArrow=classic;html=1;rounded=0;strokeWidth=2;" edge="1" parent="vEB7vDUypUfogQzmT7L4-1">
          <mxGeometry width="50" height="50" relative="1" as="geometry">
            <mxPoint x="400" y="220" as="sourcePoint" />
            <mxPoint x="120" y="260" as="targetPoint" />
          </mxGeometry>
        </mxCell>
        <mxCell id="vEB7vDUypUfogQzmT7L4-9" value="&lt;font style=&quot;font-size: 14px;&quot;&gt;&lt;b&gt;&lt;font&gt;SYN, ACK &lt;/font&gt;&lt;/b&gt;&lt;font&gt;(seq=B, ack=(A+1))&lt;/font&gt;&lt;font&gt;&lt;br&gt;&lt;/font&gt;&lt;/font&gt;" style="text;html=1;align=center;verticalAlign=middle;whiteSpace=wrap;rounded=0;rotation=352;" vertex="1" parent="vEB7vDUypUfogQzmT7L4-1">
          <mxGeometry x="130" y="211.39" width="260" height="30" as="geometry" />
        </mxCell>
      </root>
    </mxGraphModel>
  </diagram>
  <diagram name="03" id="vMKU87SEh9xPmxwB9ivT">
    <mxGraphModel dx="1422" dy="793" grid="1" gridSize="10" guides="1" tooltips="1" connect="1" arrows="1" fold="1" page="1" pageScale="1" pageWidth="850" pageHeight="1100" math="0" shadow="0">
      <root>
        <mxCell id="Em6bZQbgdhDfGSCSz6FQ-0" />
        <mxCell id="Em6bZQbgdhDfGSCSz6FQ-1" parent="Em6bZQbgdhDfGSCSz6FQ-0" />
        <mxCell id="Em6bZQbgdhDfGSCSz6FQ-2" value="&lt;b style=&quot;color: rgb(255, 0, 0);&quot;&gt;&lt;font style=&quot;font-size: 24px;&quot;&gt;Host A&lt;/font&gt;&lt;/b&gt;" style="rounded=0;whiteSpace=wrap;html=1;strokeWidth=3;" vertex="1" parent="Em6bZQbgdhDfGSCSz6FQ-1">
          <mxGeometry x="40" y="40" width="160" height="60" as="geometry" />
        </mxCell>
        <mxCell id="Em6bZQbgdhDfGSCSz6FQ-3" value="&lt;b style=&quot;color: rgb(0, 0, 255);&quot;&gt;&lt;font style=&quot;font-size: 24px;&quot;&gt;Host B&lt;/font&gt;&lt;/b&gt;" style="rounded=0;whiteSpace=wrap;html=1;strokeWidth=3;" vertex="1" parent="Em6bZQbgdhDfGSCSz6FQ-1">
          <mxGeometry x="320" y="40" width="160" height="60" as="geometry" />
        </mxCell>
        <mxCell id="Em6bZQbgdhDfGSCSz6FQ-4" value="" style="endArrow=none;html=1;rounded=0;entryX=0.5;entryY=1;entryDx=0;entryDy=0;strokeWidth=4;" edge="1" parent="Em6bZQbgdhDfGSCSz6FQ-1" target="Em6bZQbgdhDfGSCSz6FQ-2">
          <mxGeometry width="50" height="50" relative="1" as="geometry">
            <mxPoint x="120" y="760" as="sourcePoint" />
            <mxPoint x="119.5" y="130" as="targetPoint" />
          </mxGeometry>
        </mxCell>
        <mxCell id="Em6bZQbgdhDfGSCSz6FQ-5" value="" style="endArrow=none;html=1;rounded=0;entryX=0.5;entryY=1;entryDx=0;entryDy=0;strokeWidth=4;" edge="1" parent="Em6bZQbgdhDfGSCSz6FQ-1">
          <mxGeometry width="50" height="50" relative="1" as="geometry">
            <mxPoint x="400" y="760" as="sourcePoint" />
            <mxPoint x="399.5" y="100" as="targetPoint" />
          </mxGeometry>
        </mxCell>
        <mxCell id="Em6bZQbgdhDfGSCSz6FQ-6" value="" style="endArrow=classic;html=1;rounded=0;strokeWidth=2;" edge="1" parent="Em6bZQbgdhDfGSCSz6FQ-1">
          <mxGeometry width="50" height="50" relative="1" as="geometry">
            <mxPoint x="120" y="140" as="sourcePoint" />
            <mxPoint x="400" y="180" as="targetPoint" />
          </mxGeometry>
        </mxCell>
        <mxCell id="Em6bZQbgdhDfGSCSz6FQ-7" value="&lt;font style=&quot;font-size: 14px;&quot;&gt;&lt;b&gt;&lt;font&gt;SYN &lt;/font&gt;&lt;/b&gt;&lt;font&gt;(seq=A)&lt;/font&gt;&lt;font&gt;&lt;br&gt;&lt;/font&gt;&lt;/font&gt;" style="text;html=1;align=center;verticalAlign=middle;whiteSpace=wrap;rounded=0;rotation=8;" vertex="1" parent="Em6bZQbgdhDfGSCSz6FQ-1">
          <mxGeometry x="200" y="130" width="140" height="30" as="geometry" />
        </mxCell>
        <mxCell id="Em6bZQbgdhDfGSCSz6FQ-8" value="" style="endArrow=classic;html=1;rounded=0;strokeWidth=2;" edge="1" parent="Em6bZQbgdhDfGSCSz6FQ-1">
          <mxGeometry width="50" height="50" relative="1" as="geometry">
            <mxPoint x="400" y="220" as="sourcePoint" />
            <mxPoint x="120" y="260" as="targetPoint" />
          </mxGeometry>
        </mxCell>
        <mxCell id="Em6bZQbgdhDfGSCSz6FQ-9" value="&lt;font style=&quot;font-size: 14px;&quot;&gt;&lt;b&gt;&lt;font&gt;SYN, ACK &lt;/font&gt;&lt;/b&gt;&lt;font&gt;(seq=B, ack=(A+1))&lt;/font&gt;&lt;font&gt;&lt;br&gt;&lt;/font&gt;&lt;/font&gt;" style="text;html=1;align=center;verticalAlign=middle;whiteSpace=wrap;rounded=0;rotation=352;" vertex="1" parent="Em6bZQbgdhDfGSCSz6FQ-1">
          <mxGeometry x="130" y="211.39" width="260" height="30" as="geometry" />
        </mxCell>
        <mxCell id="Em6bZQbgdhDfGSCSz6FQ-10" value="" style="endArrow=classic;html=1;rounded=0;strokeWidth=2;" edge="1" parent="Em6bZQbgdhDfGSCSz6FQ-1">
          <mxGeometry width="50" height="50" relative="1" as="geometry">
            <mxPoint x="120" y="300" as="sourcePoint" />
            <mxPoint x="400" y="340" as="targetPoint" />
          </mxGeometry>
        </mxCell>
        <mxCell id="Em6bZQbgdhDfGSCSz6FQ-11" value="&lt;font style=&quot;font-size: 14px;&quot;&gt;&lt;b&gt;&lt;font&gt;&lt;span style=&quot;white-space: pre;&quot;&gt;&#x9;&lt;/span&gt;ACK &lt;/font&gt;&lt;/b&gt;&lt;font&gt;(seq=(A+1), ack=(B+1))&lt;/font&gt;&lt;font&gt;&lt;br&gt;&lt;/font&gt;&lt;/font&gt;" style="text;html=1;align=center;verticalAlign=middle;whiteSpace=wrap;rounded=0;rotation=8;" vertex="1" parent="Em6bZQbgdhDfGSCSz6FQ-1">
          <mxGeometry x="100" y="290" width="280" height="30" as="geometry" />
        </mxCell>
      </root>
    </mxGraphModel>
  </diagram>
  <diagram name="04" id="INbOGQBrus4u_ZnkKydj">
    <mxGraphModel dx="1422" dy="793" grid="1" gridSize="10" guides="1" tooltips="1" connect="1" arrows="1" fold="1" page="1" pageScale="1" pageWidth="850" pageHeight="1100" math="0" shadow="0">
      <root>
        <mxCell id="8lMUxXcKS6vyn3MnpTYk-0" />
        <mxCell id="8lMUxXcKS6vyn3MnpTYk-1" parent="8lMUxXcKS6vyn3MnpTYk-0" />
        <mxCell id="8lMUxXcKS6vyn3MnpTYk-2" value="&lt;b style=&quot;color: rgb(255, 0, 0);&quot;&gt;&lt;font style=&quot;font-size: 24px;&quot;&gt;Host A&lt;/font&gt;&lt;/b&gt;" style="rounded=0;whiteSpace=wrap;html=1;strokeWidth=3;" vertex="1" parent="8lMUxXcKS6vyn3MnpTYk-1">
          <mxGeometry x="40" y="40" width="160" height="60" as="geometry" />
        </mxCell>
        <mxCell id="8lMUxXcKS6vyn3MnpTYk-3" value="&lt;b style=&quot;color: rgb(0, 0, 255);&quot;&gt;&lt;font style=&quot;font-size: 24px;&quot;&gt;Host B&lt;/font&gt;&lt;/b&gt;" style="rounded=0;whiteSpace=wrap;html=1;strokeWidth=3;" vertex="1" parent="8lMUxXcKS6vyn3MnpTYk-1">
          <mxGeometry x="320" y="40" width="160" height="60" as="geometry" />
        </mxCell>
        <mxCell id="8lMUxXcKS6vyn3MnpTYk-4" value="" style="endArrow=none;html=1;rounded=0;entryX=0.5;entryY=1;entryDx=0;entryDy=0;strokeWidth=4;" edge="1" parent="8lMUxXcKS6vyn3MnpTYk-1" target="8lMUxXcKS6vyn3MnpTYk-2">
          <mxGeometry width="50" height="50" relative="1" as="geometry">
            <mxPoint x="120" y="760" as="sourcePoint" />
            <mxPoint x="119.5" y="130" as="targetPoint" />
          </mxGeometry>
        </mxCell>
        <mxCell id="8lMUxXcKS6vyn3MnpTYk-5" value="" style="endArrow=none;html=1;rounded=0;entryX=0.5;entryY=1;entryDx=0;entryDy=0;strokeWidth=4;" edge="1" parent="8lMUxXcKS6vyn3MnpTYk-1">
          <mxGeometry width="50" height="50" relative="1" as="geometry">
            <mxPoint x="400" y="760" as="sourcePoint" />
            <mxPoint x="399.5" y="100" as="targetPoint" />
          </mxGeometry>
        </mxCell>
        <mxCell id="8lMUxXcKS6vyn3MnpTYk-6" value="" style="endArrow=classic;html=1;rounded=0;strokeWidth=2;" edge="1" parent="8lMUxXcKS6vyn3MnpTYk-1">
          <mxGeometry width="50" height="50" relative="1" as="geometry">
            <mxPoint x="120" y="140" as="sourcePoint" />
            <mxPoint x="400" y="180" as="targetPoint" />
          </mxGeometry>
        </mxCell>
        <mxCell id="8lMUxXcKS6vyn3MnpTYk-7" value="&lt;font style=&quot;font-size: 14px;&quot;&gt;&lt;b&gt;&lt;font&gt;SYN &lt;/font&gt;&lt;/b&gt;&lt;font&gt;(seq=A)&lt;/font&gt;&lt;font&gt;&lt;br&gt;&lt;/font&gt;&lt;/font&gt;" style="text;html=1;align=center;verticalAlign=middle;whiteSpace=wrap;rounded=0;rotation=8;" vertex="1" parent="8lMUxXcKS6vyn3MnpTYk-1">
          <mxGeometry x="200" y="130" width="140" height="30" as="geometry" />
        </mxCell>
        <mxCell id="8lMUxXcKS6vyn3MnpTYk-8" value="" style="endArrow=classic;html=1;rounded=0;strokeWidth=2;" edge="1" parent="8lMUxXcKS6vyn3MnpTYk-1">
          <mxGeometry width="50" height="50" relative="1" as="geometry">
            <mxPoint x="400" y="220" as="sourcePoint" />
            <mxPoint x="120" y="260" as="targetPoint" />
          </mxGeometry>
        </mxCell>
        <mxCell id="8lMUxXcKS6vyn3MnpTYk-9" value="&lt;font style=&quot;font-size: 14px;&quot;&gt;&lt;b&gt;&lt;font&gt;SYN, ACK &lt;/font&gt;&lt;/b&gt;&lt;font&gt;(seq=B, ack=(A+1))&lt;/font&gt;&lt;font&gt;&lt;br&gt;&lt;/font&gt;&lt;/font&gt;" style="text;html=1;align=center;verticalAlign=middle;whiteSpace=wrap;rounded=0;rotation=352;" vertex="1" parent="8lMUxXcKS6vyn3MnpTYk-1">
          <mxGeometry x="130" y="211.39" width="260" height="30" as="geometry" />
        </mxCell>
        <mxCell id="8lMUxXcKS6vyn3MnpTYk-10" value="" style="endArrow=classic;html=1;rounded=0;strokeWidth=2;" edge="1" parent="8lMUxXcKS6vyn3MnpTYk-1">
          <mxGeometry width="50" height="50" relative="1" as="geometry">
            <mxPoint x="120" y="300" as="sourcePoint" />
            <mxPoint x="400" y="340" as="targetPoint" />
          </mxGeometry>
        </mxCell>
        <mxCell id="8lMUxXcKS6vyn3MnpTYk-11" value="&lt;font style=&quot;font-size: 14px;&quot;&gt;&lt;b&gt;&lt;font&gt;&lt;span style=&quot;white-space: pre;&quot;&gt;&#x9;&lt;/span&gt;ACK &lt;/font&gt;&lt;/b&gt;&lt;font&gt;(seq=(A+1), ack=(B+1))&lt;/font&gt;&lt;font&gt;&lt;br&gt;&lt;/font&gt;&lt;/font&gt;" style="text;html=1;align=center;verticalAlign=middle;whiteSpace=wrap;rounded=0;rotation=8;" vertex="1" parent="8lMUxXcKS6vyn3MnpTYk-1">
          <mxGeometry x="100" y="290" width="280" height="30" as="geometry" />
        </mxCell>
        <mxCell id="8lMUxXcKS6vyn3MnpTYk-12" value="" style="endArrow=classic;html=1;rounded=0;strokeWidth=2;" edge="1" parent="8lMUxXcKS6vyn3MnpTYk-1">
          <mxGeometry width="50" height="50" relative="1" as="geometry">
            <mxPoint x="120" y="360" as="sourcePoint" />
            <mxPoint x="400" y="400" as="targetPoint" />
          </mxGeometry>
        </mxCell>
        <mxCell id="8lMUxXcKS6vyn3MnpTYk-13" value="&lt;font style=&quot;font-size: 14px;&quot;&gt;&lt;b&gt;&lt;font&gt;PSH, ACK &lt;/font&gt;&lt;/b&gt;&lt;font&gt;(seq=(A+1), ack=(B+1))&lt;/font&gt;&lt;font&gt;&lt;br&gt;&lt;/font&gt;&lt;/font&gt;" style="text;html=1;align=center;verticalAlign=middle;whiteSpace=wrap;rounded=0;rotation=8;" vertex="1" parent="8lMUxXcKS6vyn3MnpTYk-1">
          <mxGeometry x="120" y="350" width="280" height="30" as="geometry" />
        </mxCell>
        <mxCell id="8lMUxXcKS6vyn3MnpTYk-14" value="&lt;pre&gt;&lt;font style=&quot;font-size: 13px;&quot;&gt;&lt;font style=&quot;font-size: 14px;&quot;&gt;&lt;b&gt;&quot;Hello, world!&quot;&lt;/b&gt;&lt;/font&gt;&lt;br&gt;&lt;/font&gt;&lt;/pre&gt;" style="text;html=1;align=center;verticalAlign=middle;whiteSpace=wrap;rounded=0;rotation=8;" vertex="1" parent="8lMUxXcKS6vyn3MnpTYk-1">
          <mxGeometry x="120" y="380" width="280" height="30" as="geometry" />
        </mxCell>
      </root>
    </mxGraphModel>
  </diagram>
  <diagram name="05" id="42fUgdTPbidUkYaqAAr2">
    <mxGraphModel dx="1422" dy="793" grid="1" gridSize="10" guides="1" tooltips="1" connect="1" arrows="1" fold="1" page="1" pageScale="1" pageWidth="850" pageHeight="1100" math="0" shadow="0">
      <root>
        <mxCell id="aN9ctppF6m2_FAgc-hXI-0" />
        <mxCell id="aN9ctppF6m2_FAgc-hXI-1" parent="aN9ctppF6m2_FAgc-hXI-0" />
        <mxCell id="aN9ctppF6m2_FAgc-hXI-2" value="&lt;b style=&quot;color: rgb(255, 0, 0);&quot;&gt;&lt;font style=&quot;font-size: 24px;&quot;&gt;Host A&lt;/font&gt;&lt;/b&gt;" style="rounded=0;whiteSpace=wrap;html=1;strokeWidth=3;" vertex="1" parent="aN9ctppF6m2_FAgc-hXI-1">
          <mxGeometry x="40" y="40" width="160" height="60" as="geometry" />
        </mxCell>
        <mxCell id="aN9ctppF6m2_FAgc-hXI-3" value="&lt;b style=&quot;color: rgb(0, 0, 255);&quot;&gt;&lt;font style=&quot;font-size: 24px;&quot;&gt;Host B&lt;/font&gt;&lt;/b&gt;" style="rounded=0;whiteSpace=wrap;html=1;strokeWidth=3;" vertex="1" parent="aN9ctppF6m2_FAgc-hXI-1">
          <mxGeometry x="320" y="40" width="160" height="60" as="geometry" />
        </mxCell>
        <mxCell id="aN9ctppF6m2_FAgc-hXI-4" value="" style="endArrow=none;html=1;rounded=0;entryX=0.5;entryY=1;entryDx=0;entryDy=0;strokeWidth=4;" edge="1" parent="aN9ctppF6m2_FAgc-hXI-1" target="aN9ctppF6m2_FAgc-hXI-2">
          <mxGeometry width="50" height="50" relative="1" as="geometry">
            <mxPoint x="120" y="760" as="sourcePoint" />
            <mxPoint x="119.5" y="130" as="targetPoint" />
          </mxGeometry>
        </mxCell>
        <mxCell id="aN9ctppF6m2_FAgc-hXI-5" value="" style="endArrow=none;html=1;rounded=0;entryX=0.5;entryY=1;entryDx=0;entryDy=0;strokeWidth=4;" edge="1" parent="aN9ctppF6m2_FAgc-hXI-1">
          <mxGeometry width="50" height="50" relative="1" as="geometry">
            <mxPoint x="400" y="760" as="sourcePoint" />
            <mxPoint x="399.5" y="100" as="targetPoint" />
          </mxGeometry>
        </mxCell>
        <mxCell id="aN9ctppF6m2_FAgc-hXI-6" value="" style="endArrow=classic;html=1;rounded=0;strokeWidth=2;" edge="1" parent="aN9ctppF6m2_FAgc-hXI-1">
          <mxGeometry width="50" height="50" relative="1" as="geometry">
            <mxPoint x="120" y="140" as="sourcePoint" />
            <mxPoint x="400" y="180" as="targetPoint" />
          </mxGeometry>
        </mxCell>
        <mxCell id="aN9ctppF6m2_FAgc-hXI-7" value="&lt;font style=&quot;font-size: 14px;&quot;&gt;&lt;b&gt;&lt;font&gt;SYN &lt;/font&gt;&lt;/b&gt;&lt;font&gt;(seq=A)&lt;/font&gt;&lt;font&gt;&lt;br&gt;&lt;/font&gt;&lt;/font&gt;" style="text;html=1;align=center;verticalAlign=middle;whiteSpace=wrap;rounded=0;rotation=8;" vertex="1" parent="aN9ctppF6m2_FAgc-hXI-1">
          <mxGeometry x="200" y="130" width="140" height="30" as="geometry" />
        </mxCell>
        <mxCell id="aN9ctppF6m2_FAgc-hXI-8" value="" style="endArrow=classic;html=1;rounded=0;strokeWidth=2;" edge="1" parent="aN9ctppF6m2_FAgc-hXI-1">
          <mxGeometry width="50" height="50" relative="1" as="geometry">
            <mxPoint x="400" y="220" as="sourcePoint" />
            <mxPoint x="120" y="260" as="targetPoint" />
          </mxGeometry>
        </mxCell>
        <mxCell id="aN9ctppF6m2_FAgc-hXI-9" value="&lt;font style=&quot;font-size: 14px;&quot;&gt;&lt;b&gt;&lt;font&gt;SYN, ACK &lt;/font&gt;&lt;/b&gt;&lt;font&gt;(seq=B, ack=(A+1))&lt;/font&gt;&lt;font&gt;&lt;br&gt;&lt;/font&gt;&lt;/font&gt;" style="text;html=1;align=center;verticalAlign=middle;whiteSpace=wrap;rounded=0;rotation=352;" vertex="1" parent="aN9ctppF6m2_FAgc-hXI-1">
          <mxGeometry x="130" y="211.39" width="260" height="30" as="geometry" />
        </mxCell>
        <mxCell id="aN9ctppF6m2_FAgc-hXI-10" value="" style="endArrow=classic;html=1;rounded=0;strokeWidth=2;" edge="1" parent="aN9ctppF6m2_FAgc-hXI-1">
          <mxGeometry width="50" height="50" relative="1" as="geometry">
            <mxPoint x="120" y="300" as="sourcePoint" />
            <mxPoint x="400" y="340" as="targetPoint" />
          </mxGeometry>
        </mxCell>
        <mxCell id="aN9ctppF6m2_FAgc-hXI-11" value="&lt;font style=&quot;font-size: 14px;&quot;&gt;&lt;b&gt;&lt;font&gt;&lt;span style=&quot;white-space: pre;&quot;&gt;&#x9;&lt;/span&gt;ACK &lt;/font&gt;&lt;/b&gt;&lt;font&gt;(seq=(A+1), ack=(B+1))&lt;/font&gt;&lt;font&gt;&lt;br&gt;&lt;/font&gt;&lt;/font&gt;" style="text;html=1;align=center;verticalAlign=middle;whiteSpace=wrap;rounded=0;rotation=8;" vertex="1" parent="aN9ctppF6m2_FAgc-hXI-1">
          <mxGeometry x="100" y="290" width="280" height="30" as="geometry" />
        </mxCell>
        <mxCell id="aN9ctppF6m2_FAgc-hXI-12" value="" style="endArrow=classic;html=1;rounded=0;strokeWidth=2;" edge="1" parent="aN9ctppF6m2_FAgc-hXI-1">
          <mxGeometry width="50" height="50" relative="1" as="geometry">
            <mxPoint x="120" y="360" as="sourcePoint" />
            <mxPoint x="400" y="400" as="targetPoint" />
          </mxGeometry>
        </mxCell>
        <mxCell id="aN9ctppF6m2_FAgc-hXI-13" value="&lt;font style=&quot;font-size: 14px;&quot;&gt;&lt;b&gt;&lt;font&gt;PSH, ACK &lt;/font&gt;&lt;/b&gt;&lt;font&gt;(seq=(A+1), ack=(B+1))&lt;/font&gt;&lt;font&gt;&lt;br&gt;&lt;/font&gt;&lt;/font&gt;" style="text;html=1;align=center;verticalAlign=middle;whiteSpace=wrap;rounded=0;rotation=8;" vertex="1" parent="aN9ctppF6m2_FAgc-hXI-1">
          <mxGeometry x="120" y="350" width="280" height="30" as="geometry" />
        </mxCell>
        <mxCell id="aN9ctppF6m2_FAgc-hXI-14" value="&lt;pre&gt;&lt;font style=&quot;font-size: 13px;&quot;&gt;&lt;font style=&quot;font-size: 14px;&quot;&gt;&lt;b&gt;&quot;Hello, world!&quot;&lt;/b&gt;&lt;/font&gt;&lt;br&gt;&lt;/font&gt;&lt;/pre&gt;" style="text;html=1;align=center;verticalAlign=middle;whiteSpace=wrap;rounded=0;rotation=8;" vertex="1" parent="aN9ctppF6m2_FAgc-hXI-1">
          <mxGeometry x="120" y="380" width="280" height="30" as="geometry" />
        </mxCell>
        <mxCell id="aN9ctppF6m2_FAgc-hXI-15" value="" style="endArrow=classic;html=1;rounded=0;strokeWidth=2;" edge="1" parent="aN9ctppF6m2_FAgc-hXI-1">
          <mxGeometry width="50" height="50" relative="1" as="geometry">
            <mxPoint x="400" y="450" as="sourcePoint" />
            <mxPoint x="120" y="490" as="targetPoint" />
          </mxGeometry>
        </mxCell>
        <mxCell id="aN9ctppF6m2_FAgc-hXI-16" value="&lt;font style=&quot;font-size: 14px;&quot;&gt;&lt;b&gt;&lt;font&gt;ACK &lt;/font&gt;&lt;/b&gt;&lt;font&gt;(seq=(B+1), ack=(A+14))&lt;/font&gt;&lt;font&gt;&lt;br&gt;&lt;/font&gt;&lt;/font&gt;" style="text;html=1;align=center;verticalAlign=middle;whiteSpace=wrap;rounded=0;rotation=352;" vertex="1" parent="aN9ctppF6m2_FAgc-hXI-1">
          <mxGeometry x="130" y="440" width="260" height="30" as="geometry" />
        </mxCell>
      </root>
    </mxGraphModel>
  </diagram>
  <diagram name="06" id="Tsc_SkGFLkxIkQJV65UK">
    <mxGraphModel dx="1422" dy="793" grid="1" gridSize="10" guides="1" tooltips="1" connect="1" arrows="1" fold="1" page="1" pageScale="1" pageWidth="850" pageHeight="1100" math="0" shadow="0">
      <root>
        <mxCell id="aUb21tPujPERZvroZZyi-0" />
        <mxCell id="aUb21tPujPERZvroZZyi-1" parent="aUb21tPujPERZvroZZyi-0" />
        <mxCell id="aUb21tPujPERZvroZZyi-2" value="&lt;b style=&quot;color: rgb(255, 0, 0);&quot;&gt;&lt;font style=&quot;font-size: 24px;&quot;&gt;Host A&lt;/font&gt;&lt;/b&gt;" style="rounded=0;whiteSpace=wrap;html=1;strokeWidth=3;" vertex="1" parent="aUb21tPujPERZvroZZyi-1">
          <mxGeometry x="40" y="40" width="160" height="60" as="geometry" />
        </mxCell>
        <mxCell id="aUb21tPujPERZvroZZyi-3" value="&lt;b style=&quot;color: rgb(0, 0, 255);&quot;&gt;&lt;font style=&quot;font-size: 24px;&quot;&gt;Host B&lt;/font&gt;&lt;/b&gt;" style="rounded=0;whiteSpace=wrap;html=1;strokeWidth=3;" vertex="1" parent="aUb21tPujPERZvroZZyi-1">
          <mxGeometry x="320" y="40" width="160" height="60" as="geometry" />
        </mxCell>
        <mxCell id="aUb21tPujPERZvroZZyi-4" value="" style="endArrow=none;html=1;rounded=0;entryX=0.5;entryY=1;entryDx=0;entryDy=0;strokeWidth=4;" edge="1" parent="aUb21tPujPERZvroZZyi-1" target="aUb21tPujPERZvroZZyi-2">
          <mxGeometry width="50" height="50" relative="1" as="geometry">
            <mxPoint x="120" y="760" as="sourcePoint" />
            <mxPoint x="119.5" y="130" as="targetPoint" />
          </mxGeometry>
        </mxCell>
        <mxCell id="aUb21tPujPERZvroZZyi-5" value="" style="endArrow=none;html=1;rounded=0;entryX=0.5;entryY=1;entryDx=0;entryDy=0;strokeWidth=4;" edge="1" parent="aUb21tPujPERZvroZZyi-1">
          <mxGeometry width="50" height="50" relative="1" as="geometry">
            <mxPoint x="400" y="760" as="sourcePoint" />
            <mxPoint x="399.5" y="100" as="targetPoint" />
          </mxGeometry>
        </mxCell>
        <mxCell id="aUb21tPujPERZvroZZyi-6" value="" style="endArrow=classic;html=1;rounded=0;strokeWidth=2;" edge="1" parent="aUb21tPujPERZvroZZyi-1">
          <mxGeometry width="50" height="50" relative="1" as="geometry">
            <mxPoint x="120" y="140" as="sourcePoint" />
            <mxPoint x="400" y="180" as="targetPoint" />
          </mxGeometry>
        </mxCell>
        <mxCell id="aUb21tPujPERZvroZZyi-7" value="&lt;font style=&quot;font-size: 14px;&quot;&gt;&lt;b&gt;&lt;font&gt;SYN &lt;/font&gt;&lt;/b&gt;&lt;font&gt;(seq=A)&lt;/font&gt;&lt;font&gt;&lt;br&gt;&lt;/font&gt;&lt;/font&gt;" style="text;html=1;align=center;verticalAlign=middle;whiteSpace=wrap;rounded=0;rotation=8;" vertex="1" parent="aUb21tPujPERZvroZZyi-1">
          <mxGeometry x="200" y="130" width="140" height="30" as="geometry" />
        </mxCell>
        <mxCell id="aUb21tPujPERZvroZZyi-8" value="" style="endArrow=classic;html=1;rounded=0;strokeWidth=2;" edge="1" parent="aUb21tPujPERZvroZZyi-1">
          <mxGeometry width="50" height="50" relative="1" as="geometry">
            <mxPoint x="400" y="220" as="sourcePoint" />
            <mxPoint x="120" y="260" as="targetPoint" />
          </mxGeometry>
        </mxCell>
        <mxCell id="aUb21tPujPERZvroZZyi-9" value="&lt;font style=&quot;font-size: 14px;&quot;&gt;&lt;b&gt;&lt;font&gt;SYN, ACK &lt;/font&gt;&lt;/b&gt;&lt;font&gt;(seq=B, ack=(A+1))&lt;/font&gt;&lt;font&gt;&lt;br&gt;&lt;/font&gt;&lt;/font&gt;" style="text;html=1;align=center;verticalAlign=middle;whiteSpace=wrap;rounded=0;rotation=352;" vertex="1" parent="aUb21tPujPERZvroZZyi-1">
          <mxGeometry x="130" y="211.39" width="260" height="30" as="geometry" />
        </mxCell>
        <mxCell id="aUb21tPujPERZvroZZyi-10" value="" style="endArrow=classic;html=1;rounded=0;strokeWidth=2;" edge="1" parent="aUb21tPujPERZvroZZyi-1">
          <mxGeometry width="50" height="50" relative="1" as="geometry">
            <mxPoint x="120" y="300" as="sourcePoint" />
            <mxPoint x="400" y="340" as="targetPoint" />
          </mxGeometry>
        </mxCell>
        <mxCell id="aUb21tPujPERZvroZZyi-11" value="&lt;font style=&quot;font-size: 14px;&quot;&gt;&lt;b&gt;&lt;font&gt;&lt;span style=&quot;white-space: pre;&quot;&gt;&#x9;&lt;/span&gt;ACK &lt;/font&gt;&lt;/b&gt;&lt;font&gt;(seq=(A+1), ack=(B+1))&lt;/font&gt;&lt;font&gt;&lt;br&gt;&lt;/font&gt;&lt;/font&gt;" style="text;html=1;align=center;verticalAlign=middle;whiteSpace=wrap;rounded=0;rotation=8;" vertex="1" parent="aUb21tPujPERZvroZZyi-1">
          <mxGeometry x="100" y="290" width="280" height="30" as="geometry" />
        </mxCell>
        <mxCell id="aUb21tPujPERZvroZZyi-12" value="" style="endArrow=classic;html=1;rounded=0;strokeWidth=2;" edge="1" parent="aUb21tPujPERZvroZZyi-1">
          <mxGeometry width="50" height="50" relative="1" as="geometry">
            <mxPoint x="120" y="360" as="sourcePoint" />
            <mxPoint x="400" y="400" as="targetPoint" />
          </mxGeometry>
        </mxCell>
        <mxCell id="aUb21tPujPERZvroZZyi-13" value="&lt;font style=&quot;font-size: 14px;&quot;&gt;&lt;b&gt;&lt;font&gt;PSH, ACK &lt;/font&gt;&lt;/b&gt;&lt;font&gt;(seq=(A+1), ack=(B+1))&lt;/font&gt;&lt;font&gt;&lt;br&gt;&lt;/font&gt;&lt;/font&gt;" style="text;html=1;align=center;verticalAlign=middle;whiteSpace=wrap;rounded=0;rotation=8;" vertex="1" parent="aUb21tPujPERZvroZZyi-1">
          <mxGeometry x="120" y="350" width="280" height="30" as="geometry" />
        </mxCell>
        <mxCell id="aUb21tPujPERZvroZZyi-14" value="&lt;pre&gt;&lt;font style=&quot;font-size: 13px;&quot;&gt;&lt;font style=&quot;font-size: 14px;&quot;&gt;&lt;b&gt;&quot;Hello, world!&quot;&lt;/b&gt;&lt;/font&gt;&lt;br&gt;&lt;/font&gt;&lt;/pre&gt;" style="text;html=1;align=center;verticalAlign=middle;whiteSpace=wrap;rounded=0;rotation=8;" vertex="1" parent="aUb21tPujPERZvroZZyi-1">
          <mxGeometry x="120" y="380" width="280" height="30" as="geometry" />
        </mxCell>
        <mxCell id="aUb21tPujPERZvroZZyi-15" value="" style="endArrow=classic;html=1;rounded=0;strokeWidth=2;" edge="1" parent="aUb21tPujPERZvroZZyi-1">
          <mxGeometry width="50" height="50" relative="1" as="geometry">
            <mxPoint x="400" y="450" as="sourcePoint" />
            <mxPoint x="120" y="490" as="targetPoint" />
          </mxGeometry>
        </mxCell>
        <mxCell id="aUb21tPujPERZvroZZyi-16" value="&lt;font style=&quot;font-size: 14px;&quot;&gt;&lt;b&gt;&lt;font&gt;ACK &lt;/font&gt;&lt;/b&gt;&lt;font&gt;(seq=(B+1), ack=(A+14))&lt;/font&gt;&lt;font&gt;&lt;br&gt;&lt;/font&gt;&lt;/font&gt;" style="text;html=1;align=center;verticalAlign=middle;whiteSpace=wrap;rounded=0;rotation=352;" vertex="1" parent="aUb21tPujPERZvroZZyi-1">
          <mxGeometry x="130" y="440" width="260" height="30" as="geometry" />
        </mxCell>
        <mxCell id="aUb21tPujPERZvroZZyi-17" value="" style="endArrow=classic;html=1;rounded=0;strokeWidth=2;" edge="1" parent="aUb21tPujPERZvroZZyi-1">
          <mxGeometry width="50" height="50" relative="1" as="geometry">
            <mxPoint x="120" y="510" as="sourcePoint" />
            <mxPoint x="400" y="550" as="targetPoint" />
          </mxGeometry>
        </mxCell>
        <mxCell id="aUb21tPujPERZvroZZyi-18" value="&lt;font style=&quot;font-size: 14px;&quot;&gt;&lt;b&gt;&lt;font&gt;FIN, ACK &lt;/font&gt;&lt;/b&gt;&lt;font&gt;(seq=(A+14), ack=(B+1))&lt;/font&gt;&lt;font&gt;&lt;br&gt;&lt;/font&gt;&lt;/font&gt;" style="text;html=1;align=center;verticalAlign=middle;whiteSpace=wrap;rounded=0;rotation=8;" vertex="1" parent="aUb21tPujPERZvroZZyi-1">
          <mxGeometry x="122" y="504" width="280" height="30" as="geometry" />
        </mxCell>
      </root>
    </mxGraphModel>
  </diagram>
  <diagram name="07" id="pVHIWT4xqsT67ZEiRH1H">
    <mxGraphModel dx="1422" dy="793" grid="1" gridSize="10" guides="1" tooltips="1" connect="1" arrows="1" fold="1" page="1" pageScale="1" pageWidth="850" pageHeight="1100" math="0" shadow="0">
      <root>
        <mxCell id="mxlmROPgfrSNPMYzxEEb-0" />
        <mxCell id="mxlmROPgfrSNPMYzxEEb-1" parent="mxlmROPgfrSNPMYzxEEb-0" />
        <mxCell id="mxlmROPgfrSNPMYzxEEb-2" value="&lt;b style=&quot;color: rgb(255, 0, 0);&quot;&gt;&lt;font style=&quot;font-size: 24px;&quot;&gt;Host A&lt;/font&gt;&lt;/b&gt;" style="rounded=0;whiteSpace=wrap;html=1;strokeWidth=3;" vertex="1" parent="mxlmROPgfrSNPMYzxEEb-1">
          <mxGeometry x="40" y="40" width="160" height="60" as="geometry" />
        </mxCell>
        <mxCell id="mxlmROPgfrSNPMYzxEEb-3" value="&lt;b style=&quot;color: rgb(0, 0, 255);&quot;&gt;&lt;font style=&quot;font-size: 24px;&quot;&gt;Host B&lt;/font&gt;&lt;/b&gt;" style="rounded=0;whiteSpace=wrap;html=1;strokeWidth=3;" vertex="1" parent="mxlmROPgfrSNPMYzxEEb-1">
          <mxGeometry x="320" y="40" width="160" height="60" as="geometry" />
        </mxCell>
        <mxCell id="mxlmROPgfrSNPMYzxEEb-4" value="" style="endArrow=none;html=1;rounded=0;entryX=0.5;entryY=1;entryDx=0;entryDy=0;strokeWidth=4;" edge="1" parent="mxlmROPgfrSNPMYzxEEb-1" target="mxlmROPgfrSNPMYzxEEb-2">
          <mxGeometry width="50" height="50" relative="1" as="geometry">
            <mxPoint x="120" y="760" as="sourcePoint" />
            <mxPoint x="119.5" y="130" as="targetPoint" />
          </mxGeometry>
        </mxCell>
        <mxCell id="mxlmROPgfrSNPMYzxEEb-5" value="" style="endArrow=none;html=1;rounded=0;entryX=0.5;entryY=1;entryDx=0;entryDy=0;strokeWidth=4;" edge="1" parent="mxlmROPgfrSNPMYzxEEb-1">
          <mxGeometry width="50" height="50" relative="1" as="geometry">
            <mxPoint x="400" y="760" as="sourcePoint" />
            <mxPoint x="399.5" y="100" as="targetPoint" />
          </mxGeometry>
        </mxCell>
        <mxCell id="mxlmROPgfrSNPMYzxEEb-6" value="" style="endArrow=classic;html=1;rounded=0;strokeWidth=2;" edge="1" parent="mxlmROPgfrSNPMYzxEEb-1">
          <mxGeometry width="50" height="50" relative="1" as="geometry">
            <mxPoint x="120" y="140" as="sourcePoint" />
            <mxPoint x="400" y="180" as="targetPoint" />
          </mxGeometry>
        </mxCell>
        <mxCell id="mxlmROPgfrSNPMYzxEEb-7" value="&lt;font style=&quot;font-size: 14px;&quot;&gt;&lt;b&gt;&lt;font&gt;SYN &lt;/font&gt;&lt;/b&gt;&lt;font&gt;(seq=A)&lt;/font&gt;&lt;font&gt;&lt;br&gt;&lt;/font&gt;&lt;/font&gt;" style="text;html=1;align=center;verticalAlign=middle;whiteSpace=wrap;rounded=0;rotation=8;" vertex="1" parent="mxlmROPgfrSNPMYzxEEb-1">
          <mxGeometry x="200" y="130" width="140" height="30" as="geometry" />
        </mxCell>
        <mxCell id="mxlmROPgfrSNPMYzxEEb-8" value="" style="endArrow=classic;html=1;rounded=0;strokeWidth=2;" edge="1" parent="mxlmROPgfrSNPMYzxEEb-1">
          <mxGeometry width="50" height="50" relative="1" as="geometry">
            <mxPoint x="400" y="220" as="sourcePoint" />
            <mxPoint x="120" y="260" as="targetPoint" />
          </mxGeometry>
        </mxCell>
        <mxCell id="mxlmROPgfrSNPMYzxEEb-9" value="&lt;font style=&quot;font-size: 14px;&quot;&gt;&lt;b&gt;&lt;font&gt;SYN, ACK &lt;/font&gt;&lt;/b&gt;&lt;font&gt;(seq=B, ack=(A+1))&lt;/font&gt;&lt;font&gt;&lt;br&gt;&lt;/font&gt;&lt;/font&gt;" style="text;html=1;align=center;verticalAlign=middle;whiteSpace=wrap;rounded=0;rotation=352;" vertex="1" parent="mxlmROPgfrSNPMYzxEEb-1">
          <mxGeometry x="130" y="211.39" width="260" height="30" as="geometry" />
        </mxCell>
        <mxCell id="mxlmROPgfrSNPMYzxEEb-10" value="" style="endArrow=classic;html=1;rounded=0;strokeWidth=2;" edge="1" parent="mxlmROPgfrSNPMYzxEEb-1">
          <mxGeometry width="50" height="50" relative="1" as="geometry">
            <mxPoint x="120" y="300" as="sourcePoint" />
            <mxPoint x="400" y="340" as="targetPoint" />
          </mxGeometry>
        </mxCell>
        <mxCell id="mxlmROPgfrSNPMYzxEEb-11" value="&lt;font style=&quot;font-size: 14px;&quot;&gt;&lt;b&gt;&lt;font&gt;&lt;span style=&quot;white-space: pre;&quot;&gt;&#x9;&lt;/span&gt;ACK &lt;/font&gt;&lt;/b&gt;&lt;font&gt;(seq=(A+1), ack=(B+1))&lt;/font&gt;&lt;font&gt;&lt;br&gt;&lt;/font&gt;&lt;/font&gt;" style="text;html=1;align=center;verticalAlign=middle;whiteSpace=wrap;rounded=0;rotation=8;" vertex="1" parent="mxlmROPgfrSNPMYzxEEb-1">
          <mxGeometry x="100" y="290" width="280" height="30" as="geometry" />
        </mxCell>
        <mxCell id="mxlmROPgfrSNPMYzxEEb-12" value="" style="endArrow=classic;html=1;rounded=0;strokeWidth=2;" edge="1" parent="mxlmROPgfrSNPMYzxEEb-1">
          <mxGeometry width="50" height="50" relative="1" as="geometry">
            <mxPoint x="120" y="360" as="sourcePoint" />
            <mxPoint x="400" y="400" as="targetPoint" />
          </mxGeometry>
        </mxCell>
        <mxCell id="mxlmROPgfrSNPMYzxEEb-13" value="&lt;font style=&quot;font-size: 14px;&quot;&gt;&lt;b&gt;&lt;font&gt;PSH, ACK &lt;/font&gt;&lt;/b&gt;&lt;font&gt;(seq=(A+1), ack=(B+1))&lt;/font&gt;&lt;font&gt;&lt;br&gt;&lt;/font&gt;&lt;/font&gt;" style="text;html=1;align=center;verticalAlign=middle;whiteSpace=wrap;rounded=0;rotation=8;" vertex="1" parent="mxlmROPgfrSNPMYzxEEb-1">
          <mxGeometry x="120" y="350" width="280" height="30" as="geometry" />
        </mxCell>
        <mxCell id="mxlmROPgfrSNPMYzxEEb-14" value="&lt;pre&gt;&lt;font style=&quot;font-size: 13px;&quot;&gt;&lt;font style=&quot;font-size: 14px;&quot;&gt;&lt;b&gt;&quot;Hello, world!&quot;&lt;/b&gt;&lt;/font&gt;&lt;br&gt;&lt;/font&gt;&lt;/pre&gt;" style="text;html=1;align=center;verticalAlign=middle;whiteSpace=wrap;rounded=0;rotation=8;" vertex="1" parent="mxlmROPgfrSNPMYzxEEb-1">
          <mxGeometry x="120" y="380" width="280" height="30" as="geometry" />
        </mxCell>
        <mxCell id="mxlmROPgfrSNPMYzxEEb-15" value="" style="endArrow=classic;html=1;rounded=0;strokeWidth=2;" edge="1" parent="mxlmROPgfrSNPMYzxEEb-1">
          <mxGeometry width="50" height="50" relative="1" as="geometry">
            <mxPoint x="400" y="450" as="sourcePoint" />
            <mxPoint x="120" y="490" as="targetPoint" />
          </mxGeometry>
        </mxCell>
        <mxCell id="mxlmROPgfrSNPMYzxEEb-16" value="&lt;font style=&quot;font-size: 14px;&quot;&gt;&lt;b&gt;&lt;font&gt;ACK &lt;/font&gt;&lt;/b&gt;&lt;font&gt;(seq=(B+1), ack=(A+14))&lt;/font&gt;&lt;font&gt;&lt;br&gt;&lt;/font&gt;&lt;/font&gt;" style="text;html=1;align=center;verticalAlign=middle;whiteSpace=wrap;rounded=0;rotation=352;" vertex="1" parent="mxlmROPgfrSNPMYzxEEb-1">
          <mxGeometry x="130" y="440" width="260" height="30" as="geometry" />
        </mxCell>
        <mxCell id="mxlmROPgfrSNPMYzxEEb-17" value="" style="endArrow=classic;html=1;rounded=0;strokeWidth=2;" edge="1" parent="mxlmROPgfrSNPMYzxEEb-1">
          <mxGeometry width="50" height="50" relative="1" as="geometry">
            <mxPoint x="120" y="510" as="sourcePoint" />
            <mxPoint x="400" y="550" as="targetPoint" />
          </mxGeometry>
        </mxCell>
        <mxCell id="mxlmROPgfrSNPMYzxEEb-18" value="&lt;font style=&quot;font-size: 14px;&quot;&gt;&lt;b&gt;&lt;font&gt;FIN, ACK &lt;/font&gt;&lt;/b&gt;&lt;font&gt;(seq=(A+14), ack=(B+1))&lt;/font&gt;&lt;font&gt;&lt;br&gt;&lt;/font&gt;&lt;/font&gt;" style="text;html=1;align=center;verticalAlign=middle;whiteSpace=wrap;rounded=0;rotation=8;" vertex="1" parent="mxlmROPgfrSNPMYzxEEb-1">
          <mxGeometry x="122" y="504" width="280" height="30" as="geometry" />
        </mxCell>
        <mxCell id="mxlmROPgfrSNPMYzxEEb-19" value="" style="endArrow=classic;html=1;rounded=0;strokeWidth=2;" edge="1" parent="mxlmROPgfrSNPMYzxEEb-1">
          <mxGeometry width="50" height="50" relative="1" as="geometry">
            <mxPoint x="400" y="580" as="sourcePoint" />
            <mxPoint x="120" y="620" as="targetPoint" />
          </mxGeometry>
        </mxCell>
        <mxCell id="mxlmROPgfrSNPMYzxEEb-20" value="&lt;font style=&quot;font-size: 14px;&quot;&gt;&lt;b&gt;&lt;font&gt;FIN, ACK &lt;/font&gt;&lt;/b&gt;&lt;font&gt;(seq=(B+1), ack=(A+15))&lt;/font&gt;&lt;font&gt;&lt;br&gt;&lt;/font&gt;&lt;/font&gt;" style="text;html=1;align=center;verticalAlign=middle;whiteSpace=wrap;rounded=0;rotation=352;" vertex="1" parent="mxlmROPgfrSNPMYzxEEb-1">
          <mxGeometry x="132" y="572" width="260" height="30" as="geometry" />
        </mxCell>
      </root>
    </mxGraphModel>
  </diagram>
  <diagram name="08" id="NyccBZlVItrJzydJvh0r">
    <mxGraphModel dx="1422" dy="793" grid="1" gridSize="10" guides="1" tooltips="1" connect="1" arrows="1" fold="1" page="1" pageScale="1" pageWidth="850" pageHeight="1100" math="0" shadow="0">
      <root>
        <mxCell id="0" />
        <mxCell id="1" parent="0" />
        <mxCell id="4MPC1qX9h_0I_Wqvl0ww-1" value="&lt;b style=&quot;color: rgb(255, 0, 0);&quot;&gt;&lt;font style=&quot;font-size: 24px;&quot;&gt;Host A&lt;/font&gt;&lt;/b&gt;" style="rounded=0;whiteSpace=wrap;html=1;strokeWidth=3;" vertex="1" parent="1">
          <mxGeometry x="40" y="40" width="160" height="60" as="geometry" />
        </mxCell>
        <mxCell id="4MPC1qX9h_0I_Wqvl0ww-2" value="&lt;b style=&quot;color: rgb(0, 0, 255);&quot;&gt;&lt;font style=&quot;font-size: 24px;&quot;&gt;Host B&lt;/font&gt;&lt;/b&gt;" style="rounded=0;whiteSpace=wrap;html=1;strokeWidth=3;" vertex="1" parent="1">
          <mxGeometry x="320" y="40" width="160" height="60" as="geometry" />
        </mxCell>
        <mxCell id="4MPC1qX9h_0I_Wqvl0ww-3" value="" style="endArrow=none;html=1;rounded=0;entryX=0.5;entryY=1;entryDx=0;entryDy=0;strokeWidth=4;" edge="1" parent="1" target="4MPC1qX9h_0I_Wqvl0ww-1">
          <mxGeometry width="50" height="50" relative="1" as="geometry">
            <mxPoint x="120" y="760" as="sourcePoint" />
            <mxPoint x="119.5" y="130" as="targetPoint" />
          </mxGeometry>
        </mxCell>
        <mxCell id="4MPC1qX9h_0I_Wqvl0ww-4" value="" style="endArrow=none;html=1;rounded=0;entryX=0.5;entryY=1;entryDx=0;entryDy=0;strokeWidth=4;" edge="1" parent="1">
          <mxGeometry width="50" height="50" relative="1" as="geometry">
            <mxPoint x="400" y="760" as="sourcePoint" />
            <mxPoint x="399.5" y="100" as="targetPoint" />
          </mxGeometry>
        </mxCell>
        <mxCell id="4MPC1qX9h_0I_Wqvl0ww-5" value="" style="endArrow=classic;html=1;rounded=0;strokeWidth=2;" edge="1" parent="1">
          <mxGeometry width="50" height="50" relative="1" as="geometry">
            <mxPoint x="120" y="140" as="sourcePoint" />
            <mxPoint x="400" y="180" as="targetPoint" />
          </mxGeometry>
        </mxCell>
        <mxCell id="4MPC1qX9h_0I_Wqvl0ww-9" value="&lt;font style=&quot;font-size: 14px;&quot;&gt;&lt;b&gt;&lt;font&gt;SYN &lt;/font&gt;&lt;/b&gt;&lt;font&gt;(seq=A)&lt;/font&gt;&lt;font&gt;&lt;br&gt;&lt;/font&gt;&lt;/font&gt;" style="text;html=1;align=center;verticalAlign=middle;whiteSpace=wrap;rounded=0;rotation=8;" vertex="1" parent="1">
          <mxGeometry x="200" y="130" width="140" height="30" as="geometry" />
        </mxCell>
        <mxCell id="4MPC1qX9h_0I_Wqvl0ww-12" value="" style="endArrow=classic;html=1;rounded=0;strokeWidth=2;" edge="1" parent="1">
          <mxGeometry width="50" height="50" relative="1" as="geometry">
            <mxPoint x="400" y="220" as="sourcePoint" />
            <mxPoint x="120" y="260" as="targetPoint" />
          </mxGeometry>
        </mxCell>
        <mxCell id="4MPC1qX9h_0I_Wqvl0ww-13" value="&lt;font style=&quot;font-size: 14px;&quot;&gt;&lt;b&gt;&lt;font&gt;SYN, ACK &lt;/font&gt;&lt;/b&gt;&lt;font&gt;(seq=B, ack=(A+1))&lt;/font&gt;&lt;font&gt;&lt;br&gt;&lt;/font&gt;&lt;/font&gt;" style="text;html=1;align=center;verticalAlign=middle;whiteSpace=wrap;rounded=0;rotation=352;" vertex="1" parent="1">
          <mxGeometry x="130" y="211.39" width="260" height="30" as="geometry" />
        </mxCell>
        <mxCell id="kthJJzprBRdEzOf3Z9kk-1" value="" style="endArrow=classic;html=1;rounded=0;strokeWidth=2;" edge="1" parent="1">
          <mxGeometry width="50" height="50" relative="1" as="geometry">
            <mxPoint x="120" y="300" as="sourcePoint" />
            <mxPoint x="400" y="340" as="targetPoint" />
          </mxGeometry>
        </mxCell>
        <mxCell id="kthJJzprBRdEzOf3Z9kk-2" value="&lt;font style=&quot;font-size: 14px;&quot;&gt;&lt;b&gt;&lt;font&gt;&lt;span style=&quot;white-space: pre;&quot;&gt;&#x9;&lt;/span&gt;ACK &lt;/font&gt;&lt;/b&gt;&lt;font&gt;(seq=(A+1), ack=(B+1))&lt;/font&gt;&lt;font&gt;&lt;br&gt;&lt;/font&gt;&lt;/font&gt;" style="text;html=1;align=center;verticalAlign=middle;whiteSpace=wrap;rounded=0;rotation=8;" vertex="1" parent="1">
          <mxGeometry x="100" y="290" width="280" height="30" as="geometry" />
        </mxCell>
        <mxCell id="kthJJzprBRdEzOf3Z9kk-3" value="" style="endArrow=classic;html=1;rounded=0;strokeWidth=2;" edge="1" parent="1">
          <mxGeometry width="50" height="50" relative="1" as="geometry">
            <mxPoint x="120" y="360" as="sourcePoint" />
            <mxPoint x="400" y="400" as="targetPoint" />
          </mxGeometry>
        </mxCell>
        <mxCell id="kthJJzprBRdEzOf3Z9kk-4" value="&lt;font style=&quot;font-size: 14px;&quot;&gt;&lt;b&gt;&lt;font&gt;PSH, ACK &lt;/font&gt;&lt;/b&gt;&lt;font&gt;(seq=(A+1), ack=(B+1))&lt;/font&gt;&lt;font&gt;&lt;br&gt;&lt;/font&gt;&lt;/font&gt;" style="text;html=1;align=center;verticalAlign=middle;whiteSpace=wrap;rounded=0;rotation=8;" vertex="1" parent="1">
          <mxGeometry x="120" y="350" width="280" height="30" as="geometry" />
        </mxCell>
        <mxCell id="kthJJzprBRdEzOf3Z9kk-5" value="&lt;pre&gt;&lt;font style=&quot;font-size: 13px;&quot;&gt;&lt;font style=&quot;font-size: 14px;&quot;&gt;&lt;b&gt;&quot;Hello, world!&quot;&lt;/b&gt;&lt;/font&gt;&lt;br&gt;&lt;/font&gt;&lt;/pre&gt;" style="text;html=1;align=center;verticalAlign=middle;whiteSpace=wrap;rounded=0;rotation=8;" vertex="1" parent="1">
          <mxGeometry x="120" y="380" width="280" height="30" as="geometry" />
        </mxCell>
        <mxCell id="kthJJzprBRdEzOf3Z9kk-9" value="" style="endArrow=classic;html=1;rounded=0;strokeWidth=2;" edge="1" parent="1">
          <mxGeometry width="50" height="50" relative="1" as="geometry">
            <mxPoint x="400" y="450" as="sourcePoint" />
            <mxPoint x="120" y="490" as="targetPoint" />
          </mxGeometry>
        </mxCell>
        <mxCell id="kthJJzprBRdEzOf3Z9kk-10" value="&lt;font style=&quot;font-size: 14px;&quot;&gt;&lt;b&gt;&lt;font&gt;ACK &lt;/font&gt;&lt;/b&gt;&lt;font&gt;(seq=(B+1), ack=(A+14))&lt;/font&gt;&lt;font&gt;&lt;br&gt;&lt;/font&gt;&lt;/font&gt;" style="text;html=1;align=center;verticalAlign=middle;whiteSpace=wrap;rounded=0;rotation=352;" vertex="1" parent="1">
          <mxGeometry x="130" y="440" width="260" height="30" as="geometry" />
        </mxCell>
        <mxCell id="kthJJzprBRdEzOf3Z9kk-11" value="" style="endArrow=classic;html=1;rounded=0;strokeWidth=2;" edge="1" parent="1">
          <mxGeometry width="50" height="50" relative="1" as="geometry">
            <mxPoint x="120" y="510" as="sourcePoint" />
            <mxPoint x="400" y="550" as="targetPoint" />
          </mxGeometry>
        </mxCell>
        <mxCell id="kthJJzprBRdEzOf3Z9kk-12" value="&lt;font style=&quot;font-size: 14px;&quot;&gt;&lt;b&gt;&lt;font&gt;FIN, ACK &lt;/font&gt;&lt;/b&gt;&lt;font&gt;(seq=(A+14), ack=(B+1))&lt;/font&gt;&lt;font&gt;&lt;br&gt;&lt;/font&gt;&lt;/font&gt;" style="text;html=1;align=center;verticalAlign=middle;whiteSpace=wrap;rounded=0;rotation=8;" vertex="1" parent="1">
          <mxGeometry x="122" y="504" width="280" height="30" as="geometry" />
        </mxCell>
        <mxCell id="kthJJzprBRdEzOf3Z9kk-13" value="" style="endArrow=classic;html=1;rounded=0;strokeWidth=2;" edge="1" parent="1">
          <mxGeometry width="50" height="50" relative="1" as="geometry">
            <mxPoint x="400" y="580" as="sourcePoint" />
            <mxPoint x="120" y="620" as="targetPoint" />
          </mxGeometry>
        </mxCell>
        <mxCell id="kthJJzprBRdEzOf3Z9kk-14" value="&lt;font style=&quot;font-size: 14px;&quot;&gt;&lt;b&gt;&lt;font&gt;FIN, ACK &lt;/font&gt;&lt;/b&gt;&lt;font&gt;(seq=(B+1), ack=(A+15))&lt;/font&gt;&lt;font&gt;&lt;br&gt;&lt;/font&gt;&lt;/font&gt;" style="text;html=1;align=center;verticalAlign=middle;whiteSpace=wrap;rounded=0;rotation=352;" vertex="1" parent="1">
          <mxGeometry x="132" y="572" width="260" height="30" as="geometry" />
        </mxCell>
        <mxCell id="kthJJzprBRdEzOf3Z9kk-15" value="" style="endArrow=classic;html=1;rounded=0;strokeWidth=2;" edge="1" parent="1">
          <mxGeometry width="50" height="50" relative="1" as="geometry">
            <mxPoint x="120" y="670" as="sourcePoint" />
            <mxPoint x="400" y="710" as="targetPoint" />
          </mxGeometry>
        </mxCell>
        <mxCell id="kthJJzprBRdEzOf3Z9kk-16" value="&lt;font style=&quot;font-size: 14px;&quot;&gt;&lt;b&gt;&lt;font&gt;ACK &lt;/font&gt;&lt;/b&gt;&lt;font&gt;(seq=(A+15), ack=(B+2))&lt;/font&gt;&lt;font&gt;&lt;br&gt;&lt;/font&gt;&lt;/font&gt;" style="text;html=1;align=center;verticalAlign=middle;whiteSpace=wrap;rounded=0;rotation=8;" vertex="1" parent="1">
          <mxGeometry x="130" y="664" width="280" height="30" as="geometry" />
        </mxCell>
      </root>
    </mxGraphModel>
  </diagram>
</mxfile>
